<?xml version="1.0" encoding="UTF-8"?><svg xmlns="http://www.w3.org/2000/svg" xmlns:xlink="http://www.w3.org/1999/xlink" contentScriptType="text/ecmascript" width="1230" zoomAndPan="magnify" contentStyleType="text/css" viewBox="0 0 1230 693.000001" height="693.000001" preserveAspectRatio="xMidYMid meet" version="1.0"><defs><clipPath id="clip-0"><path d="M 286.644531 17.644531 L 943.445312 17.644531 L 943.445312 674.445312 L 286.644531 674.445312 Z M 286.644531 17.644531 " clip-rule="nonzero"/></clipPath></defs><g clip-path="url(#clip-0)"><path fill="rgb(49.01886%, 76.078796%, 16.859436%)" d="M 615.128906 17.644531 C 433.722656 17.644531 286.644531 164.722656 286.644531 346.132812 C 286.644531 527.539062 433.722656 674.617188 615.128906 674.617188 C 796.539062 674.617188 943.617188 527.539062 943.617188 346.132812 C 943.589844 164.722656 796.539062 17.644531 615.128906 17.644531 Z M 615.128906 572.027344 C 490.367188 572.027344 389.238281 470.894531 389.238281 346.132812 C 389.238281 221.367188 490.367188 120.238281 615.128906 120.238281 C 739.894531 120.238281 841.023438 221.367188 841.023438 346.132812 C 841.023438 470.894531 739.894531 572.027344 615.128906 572.027344 Z M 615.128906 572.027344 " fill-opacity="1" fill-rule="nonzero"/></g></svg>